<?xml version="1.0" encoding="utf-8"?>
<!-- Generator: Adobe Illustrator 19.1.0, SVG Export Plug-In . SVG Version: 6.00 Build 0)  -->
<svg version="1.1" id="Layer_1" xmlns="http://www.w3.org/2000/svg" xmlns:xlink="http://www.w3.org/1999/xlink" x="0px" y="0px"
	 width="144.3px" height="62.8px" viewBox="-26 208.2 144.3 62.8" style="enable-background:new -26 208.2 144.3 62.8;"
	 xml:space="preserve">
<style type="text/css">
	.st0{fill:#F37835;}
	.st1{fill:#FFFFFF;}
</style>
<g>
	<g>
		<path class="st0" d="M40.4,250.4l-4,4c-1.4,1.4-2.1,3.3-2.1,5.1c0,1.9,0.7,3.7,2.1,5.1c1.4,1.4,3.3,2.1,5.1,2.1
			c1.9,0,3.7-0.7,5.1-2.1c1.4-1.4,2.1-3.3,2.1-5.1c0-1.9-0.7-3.7-2.1-5.1l-5.1-5.1L40.4,250.4L40.4,250.4z"/>
		<path class="st1" d="M39.6,254.6c0.1-0.4,0-0.8-0.5-0.2c-0.8,1.3-2.4,4.8-1.9,7.3c0.3,1.7,2.4,1.3,2.2-0.2
			C39.1,259.2,39.1,256.8,39.6,254.6L39.6,254.6z"/>
		<rect x="-2" y="208.2" class="st0" width="4.5" height="4.5"/>
		<path class="st1" d="M39.5,254.5c0.1-0.4,0-0.8-0.4-0.1c-0.8,1.3-2.4,4.8-1.9,7.3c0.3,1.7,2.4,1.3,2.2-0.2
			C39,259.1,39,256.7,39.5,254.5L39.5,254.5z"/>
		<path class="st1" d="M-13.3,213.1c-1.6,0-5.8,0.4-8.2,4.7V214H-26v26.3h4.5v-15c0-2,0-4,2-5.9c1.4-1.4,3.1-2,5-2
			c2.4,0,4.9,1.1,5.6,3.6c0.3,0.9,0.3,1.7,0.3,4.4v15h4.4v-15.8c0-2.2,0-3.9-0.4-5.4C-5.9,214.8-10,213.1-13.3,213.1z"/>
		<rect x="-1.9" y="214" class="st1" width="4.3" height="26.3"/>
		<path class="st1" d="M26.5,232.8v-8.6c0.1-3.5,0.1-6.5-2.8-8.9c-2.1-1.6-5.3-2.2-7.7-2.2c-4.5,0-7.5,1.8-9.1,4.7
			c-0.6,1.1-0.8,2.2-1,3.1h4.6c0.2-1.8,1.1-4.4,5.6-4.4c5.9,0,5.9,4.6,5.9,7.3v0.7l-4.2,0.3c-7.9,0.6-10.7,2.4-12.2,4.6
			c-0.8,1.2-1.2,2.6-1.2,4c0,4.5,3.8,7.5,8.9,7.5c2,0,3.6-0.5,4.9-1.1l0.6-3.8c-1.3,0.8-2.8,1.2-4.6,1.2c-3.3,0-5-1.8-5-3.9
			c0-1.8,0.8-3.7,5.8-4.7c2.6-0.6,4.7-0.9,6.4-1.1l1-0.2v9.7c0.5,3,2.5,3.6,4.5,3.6c1.3,0,2.1-0.3,2.8-0.4v-3.9
			c-0.4,0.2-0.9,0.3-1.5,0.3C26.6,236.6,26.6,235.3,26.5,232.8z"/>
		<path class="st1" d="M116.3,236.6c-1.8,0-1.8-1.3-1.9-3.8v-8.6c0.1-3.5,0.1-6.5-2.8-8.9c-2.1-1.6-5.3-2.2-7.7-2.2
			c-4.5,0-7.5,1.8-9.1,4.7c-0.6,1.1-0.8,2.2-1,3.1h4.6c0.2-1.8,1.1-4.4,5.6-4.4c5.9,0,5.9,4.6,5.9,7.3v0.7l-4.2,0.3
			c-7.9,0.6-10.7,2.4-12.2,4.6c-0.8,1.2-1.2,2.6-1.2,4c0,4.5,3.8,7.5,8.9,7.5c2,0,3.6-0.5,4.9-1.1l0.6-3.8c-1.3,0.8-2.8,1.2-4.6,1.2
			c-3.3,0-5-1.8-5-3.9c0-1.8,0.8-3.7,5.8-4.7c2.6-0.6,4.7-0.9,6.4-1.1l1-0.2v9.7c0.5,3,2.5,3.6,4.5,3.6c1.3,0,2.1-0.3,2.8-0.4v-3.9
			C117.3,236.5,116.8,236.6,116.3,236.6z"/>
		<path class="st1" d="M93.9,213.6c-1.8,0.1-6.5,0.2-9.1,5.1V214h-4.5v22.5c-0.3,0.1-0.7,0.1-1,0.1c-1.8,0-1.8-1.3-1.9-3.8v-8.6
			c0.1-3.5,0.1-6.5-2.8-8.9c-2.1-1.6-5.3-2.2-7.7-2.2c-4.5,0-7.5,1.8-9.1,4.7c-0.6,1.1-0.8,2.2-1,3.1h4.6c0.2-1.8,1.1-4.4,5.6-4.4
			c5.9,0,5.9,4.6,5.9,7.3v0.7l-4.2,0.3c-7.9,0.6-10.7,2.4-12.2,4.6c-0.8,1.2-1.2,2.6-1.2,4c0,4.5,3.8,7.5,8.9,7.5
			c2,0,3.6-0.5,4.9-1.1l0.6-3.8c-1.3,0.8-2.9,1.2-4.6,1.2c-3.3,0-5-1.8-5-3.9c0-1.8,0.8-3.7,5.8-4.7c2.6-0.6,4.7-0.9,6.4-1.1l1-0.2
			v9.7c0.5,3,2.5,3.6,4.5,3.6c1,0,1.8-0.2,2.4-0.3l0,0h4.5v-12.2c0-2.4-0.1-4.7,1.1-6.7c1.3-2.1,3.5-3.1,6.1-3.1
			c0.7,0,1.3,0.1,1.8,0.1v-4.8H93.9z"/>
		<path class="st1" d="M49.8,215.8c-2-1.6-4.7-2.6-8-2.6c-10.2,0-13.1,8.3-13.1,14.2c0,5.7,2.6,11.4,8.7,13.2c-0.8,1.4-1,3,0.4,5
			l1,1l0,0l7.9,7.9c1.4,1.4,2.1,3.3,2.1,5.1c0,1.9-0.7,3.7-2.1,5.1c-1.4,1.4-3.3,2.1-5.1,2.1c-1.9,0-3.7-0.7-5.1-2.1
			c-1.4-1.4-2.1-3.3-2.1-5.1c0-1.9,0.7-3.7,2.1-5.1l4-4l-3.2-3.3l-4,4c-2.3,2.3-3.4,5.3-3.4,8.2c0,3,1.1,6,3.4,8.2
			c2.3,2.3,5.3,3.4,8.2,3.4c3,0,6-1.1,8.2-3.4c2.3-2.3,3.4-5.2,3.4-8.2c0-2.9-1.1-5.8-9-13.8v-0.1c-2-2-3-3-1.6-4.4l0.1-0.1
			c7.3-0.5,11.7-6.3,11.7-13.9c0-3.2-0.7-6.3-2.4-8.7c1-0.4,2-0.6,3.2-0.6c0.7,0,1.3,0.1,1.8,0.1v-4.8
			C55.7,213.1,52.4,213.2,49.8,215.8z M49.7,227.1c-0.1,2.7-0.6,10.4-8,10.4c-5.8,0-8-4.6-8-10.1c0-6,2.4-10.7,8.4-10.7
			c3,0,6.4,1.5,7.4,6.7C49.5,224.2,49.7,225.4,49.7,227.1z"/>
		<g>
			<path class="st1" d="M118.3,216.5c0,0.8-0.6,1.4-1.4,1.4c-0.8,0-1.4-0.6-1.4-1.4s0.6-1.4,1.4-1.4S118.3,215.7,118.3,216.5z
				 M115.8,216.5c0,0.6,0.5,1.1,1.1,1.1s1.1-0.5,1.1-1.1s-0.4-1.1-1.1-1.1C116.3,215.4,115.8,215.9,115.8,216.5z M116.7,217.2h-0.3
				v-1.4c0.1,0,0.3,0,0.5,0c0.3,0,0.4,0,0.5,0.1s0.1,0.2,0.1,0.3c0,0.2-0.1,0.3-0.3,0.3l0,0c0.1,0.1,0.2,0.2,0.3,0.3
				c0,0.2,0.1,0.3,0.1,0.3h-0.3c0-0.1-0.1-0.2-0.1-0.3c0-0.2-0.1-0.2-0.3-0.2h-0.2V217.2z M116.7,216.4h0.2c0.2,0,0.3-0.1,0.3-0.2
				c0-0.1-0.1-0.2-0.3-0.2c-0.1,0-0.1,0-0.2,0V216.4z"/>
		</g>
	</g>
</g>
</svg>
